<svg xmlns="http://www.w3.org/2000/svg" viewBox="0 0 48 48" width="48" height="48"><path fill="#ffffff" fill-rule="evenodd" d="M8.5 4L9 3.57L10 3.38L11 3.33L12 3.33L13 3.33L14 3.33L15 3.33L16 3.33L17 3.33L18 3.33L19 3.33L20 3.33L21 3.33L22 3.33L23 3.33L24 3.33L25 3.33L26 3.33L27 3.33L28 3.33L29 3.57L29.5 4L30 4.5L30.5 5L31 5.5L31.5 6L32 6.5L32.5 7L33 7.5L33.5 8L34 8.5L34.5 9L35 9.5L35.5 10L36 10.5L36.5 11L37 11.5L37.5 12L38 12.5L38.5 13L39 13.6L39.33 14L39.62 15L39.67 16L39.67 17L39.67 18L39.67 19L39.67 20L39.67 21L39.67 22L39.67 23L39.67 24L39.67 25L39.67 26L39.67 27L39.67 28L39.67 29L39.67 30L39.67 31L39.67 32L39.67 33L39.67 34L39.67 35L39.67 36L39.67 37L39.67 38L39.67 39L39.67 40L39.67 41L39.43 42L39 42.5L38.5 43L38 43.43L37 43.62L36 43.67L35 43.67L34 43.67L33 43.67L32 43.67L31 43.67L30 43.67L29 43.67L28 43.67L27 43.67L26 43.67L25 43.67L24 43.67L23 43.67L22 43.67L21 43.67L20 43.67L19 43.67L18 43.67L17 43.67L16 43.67L15 43.67L14 43.67L13 43.67L12 43.67L11 43.67L10 43.67L9 43.43L8.5 43L8 42.5L7.57 42L7.38 41L7.33 40L7.33 39L7.33 38L7.33 37L7.33 36L7.33 35L7.33 34L7.33 33L7.33 32L7.33 31L7.33 30L7.33 29L7.33 28L7.33 27L7.33 26L7.33 25L7.33 24L7.33 23L7.33 22L7.33 21L7.33 20L7.33 19L7.33 18L7.33 17L7.33 16L7.33 15L7.33 14L7.33 13L7.33 12L7.33 11L7.33 10L7.33 9L7.33 8L7.33 7L7.33 6L7.57 5L8 4.5ZM10.67 7L11 6.67L12 6.57L13 6.57L14 6.57L15 6.57L16 6.57L17 6.57L18 6.57L19 6.57L20 6.57L21 6.57L22 6.57L23 6.57L24 6.57L25 6.57L26 6.57L26.85 7L27 8L27 9L27 10L27 11L27 12L27 13L27 14L27 14.02L27.2 15L28 15.73L29 15.8L30 15.8L31 15.8L32 15.8L33 15.8L34 15.8L35 15.8L36 15.89L36.11 16L36.43 17L36.43 18L36.43 19L36.43 20L36.43 21L36.43 22L36.43 23L36.43 24L36.43 25L36.43 26L36.43 27L36.43 28L36.43 29L36.43 30L36.43 31L36.43 32L36.43 33L36.43 34L36.43 35L36.43 36L36.43 37L36.43 38L36.43 39L36.33 40L36 40.33L35 40.43L34 40.43L33 40.43L32 40.43L31 40.43L30 40.43L29 40.43L28 40.43L27 40.43L26 40.43L25 40.43L24 40.43L23 40.43L22 40.43L21 40.43L20 40.43L19 40.43L18 40.43L17 40.43L16 40.43L15 40.43L14 40.43L13 40.43L12 40.43L11 40.33L10.67 40L10.57 39L10.57 38L10.57 37L10.57 36L10.57 35L10.57 34L10.57 33L10.57 32L10.57 31L10.57 30L10.57 29L10.57 28L10.57 27L10.57 26L10.57 25L10.57 24L10.57 23L10.57 22L10.57 21L10.57 20L10.57 19L10.57 18L10.57 17L10.57 16L10.57 15L10.57 14L10.57 13L10.57 12L10.57 11L10.57 10L10.57 9L10.57 8ZM30.2 22L31 21.67L31.4 22L32 22.75L32.2 23L32 23.5L31.8 24L31 25L31 25L30 26L30 26L29 27L29 27L28 28L28 28L27 29L27 29L26 30L26 30L25 31L25 31L24 32L24 32L23 33L23 33L22 33.8L21.34 34L21 34.11L20.85 34L20 33.5L19.5 33L19 32.5L18.5 32L18 31.5L17.5 31L17 30.5L16.5 30L16 29.5L15.5 29L15 28.4L14.67 28L14.73 27L15 26.7L16 26.2L17 26.5L17.5 27L18 27.5L18.5 28L19 28.5L19.5 29L20 29.5L20.5 30L21 30.46L22 30L22 30L23 29L23 29L24 28L24 28L25 27L25 27L26 26L26 26L27 25L27 25L28 24L28 24L29 23L29 23L30 22.11Z"/></svg>