<svg xmlns="http://www.w3.org/2000/svg" viewBox="0 0 48 48" width="48" height="48"><path fill="#ffffff" fill-rule="evenodd" d="M13.79 6L14 5.89L15 5.57L16 5.47L17 5.38L18 5.33L19 5.33L20 5.38L21 5.5L22 5.67L22.67 6L23 6.2L24 6.57L24.75 7L25 7.2L26 7.73L26.3 8L27 8.54L27.46 9L28 9.58L28.38 10L29 10.89L29.11 11L29.67 12L30 12.5L30.33 13L30.53 14L30.8 15L31 15.66L31.11 16L31.2 17L31.34 18L31.34 19L31.2 20L31 20.67L30.89 21L30.62 22L30.43 23L30 23.75L29.8 24L29.43 25L29 25.6L28.67 26L29 26.4L29.5 27L30 27.5L30.5 28L31 28.5L31.5 29L32 29.5L32.5 30L33 30.5L33.5 31L34 31.5L34.5 32L35 32.5L35.5 33L36 33.5L36.5 34L37 34.5L37.5 35L38 35.5L38.5 36L39 36.5L39.5 37L40 37.5L40.5 38L41 38.99L41 39L41 39.02L40.8 40L40 40.8L39.02 41L39 41L38.99 41L38 40.5L37.5 40L37 39.5L36.5 39L36 38.5L35.5 38L35 37.5L34.5 37L34 36.5L33.5 36L33 35.5L32.5 35L32 34.5L31.5 34L31 33.5L30.5 33L30 32.5L29.5 32L29 31.5L28.5 31L28 30.5L27.5 30L27 29.5L26.4 29L26 28.67L25.6 29L25 29.43L24 30L24 30L23 30.47L22 30.67L21 30.89L20.68 31L20 31.2L19 31.34L18 31.34L17 31.34L16 31.11L15.66 31L15 30.8L14 30.57L13 30.2L12.75 30L12 29.57L11 29.11L10.89 29L10 28.38L9.55 28L9 27.5L8.54 27L8 26.36L7.67 26L7.11 25L7 24.88L6.5 24L6.11 23L6 22.8L5.67 22L5.47 21L5.43 20L5.33 19L5.33 18L5.33 17L5.47 16L5.57 15L5.8 14L6 13.71L6.38 13L6.8 12L7 11.75L7.46 11L8 10.3L8.27 10L9 9L9 9L10 8.2L10.23 8L11 7.46L11.6 7L12 6.67L13 6.33ZM15.81 9L16 8.89L17 8.62L18 8.57L19 8.62L20 8.67L20.79 9L21 9.11L22 9.43L23 9.8L23.25 10L24 10.5L24.5 11L25 11.5L25.5 12L26 12.6L26.33 13L26.8 14L27 14.34L27.33 15L27.53 16L27.67 17L27.8 18L27.67 19L27.62 20L27.47 21L27.2 22L27 22.25L26.57 23L26 24L26 24L25 25L25 25L24 25.89L23.89 26L23 26.57L22.14 27L22 27.11L21 27.5L20 27.62L19 27.8L18 27.8L17 27.67L16 27.53L15 27.38L14.28 27L14 26.8L13 26.43L12.5 26L12 25.5L11.5 25L11 24.5L10.54 24L10 23.22L9.8 23L9.47 22L9 21L9 20.99L8.73 20L8.57 19L8.57 18L8.67 17L8.8 16L9 15.61L9.28 15L9.57 14L10 13.25L10.2 13L11 12L11 12L12 11L12 11L13 10.34L13.4 10L14 9.57L15 9.34Z"/></svg>